<?xml version="1.0"?>
<svg viewBox="0 0 606 294" xmlns="http://www.w3.org/2000/svg" xmlns:svg="http://www.w3.org/2000/svg">
 <!-- Created with SVG-edit - https://github.com/SVG-Edit/svgedit-->

 <g class="layer">
  <title>Layer 1</title>
  <text fill="#ff0000" font-family="Serif" font-size="278.33" id="svg_1" stroke="#000000" stroke-width="0" text-anchor="middle" x="302.89" xml:space="preserve" y="224.14">DND</text>
  <path d="m410.63,43.62c5.41,-1.49 11.09,-1.63 16.64,-2.22c6.41,-0.63 13.09,-0.56 19.14,-3.12c4.02,-1.62 5.15,-6.37 5.39,-10.44c1.1,-6.99 5,-14.24 11.48,-16.95c2.51,-1.35 6.2,0.35 8.2,-0.9c-2.43,-3.33 2.81,-7.18 5.02,-3.6c2.82,0.7 5.74,-1.18 6.39,-3.89c2.54,2 5,4.71 8.04,6.25c2.89,1.1 6.89,5.01 3.19,7.8c-2.49,2.72 -6.39,2.42 -9,4.71c-2.62,2.17 -2.39,5.9 -1.36,8.88c0.17,3.25 2.76,3.71 5.05,4.57c0.38,2.03 -2.7,2.61 -4.21,3.1c-3.24,0.55 -6.35,-0.83 -8.78,-3.02c-2.21,-2.77 -4.85,0.28 -4.11,3.01c-3.74,3.19 3.08,1.52 3.89,3.65c-3.23,1.24 -6.94,0.59 -10.35,0.53c-4.48,0.07 -8.24,-2.91 -12.55,-3.67c-2.66,0.99 -4.92,3.28 -7.89,3.59c-8.72,1.51 -17.61,1.39 -26.42,1.88c-2.55,-0.03 -5.41,0.43 -7.78,-0.16l0.02,0z" fill="#7f7f7f" id="svg_2" stroke="#000000" stroke-width="5"/>
 </g>
</svg>